<svg width="20" height="20" viewBox="0 0 20 20" fill="none" xmlns="http://www.w3.org/2000/svg">
<path d="M19.705 14.293C17.3527 11.94 16.9987 10.7593 16.9987 6.99999C16.9987 3.13398 13.8654 0 10.0001 0C6.13471 0 3.0014 3.13402 3.0014 6.99999C3.0014 9.02697 2.94741 9.78365 2.66839 10.7126C2.3214 11.87 1.60906 12.978 0.294724 14.293C-0.334923 14.923 0.111092 16 1.00175 16H6.55073L6.50038 16.5C6.50038 18.433 8.06705 20 9.99971 20C11.9324 20 13.499 18.433 13.499 16.5L13.4487 16H18.998C19.889 16 20.335 14.923 19.705 14.293ZM10.0004 19C8.62002 19 7.50073 17.8803 7.50073 16.5L7.55108 16H12.4491L12.5001 16.5C12.5001 17.8803 11.3807 19 10.0004 19ZM1.00207 15C4.0014 12 4.0014 9.99998 4.0014 6.99999C4.0014 3.68667 6.68706 0.999998 10.0001 0.999998C13.3131 0.999998 15.9987 3.68667 15.999 6.99999C15.999 9.99998 15.999 12 18.9984 15H1.00207Z" fill="#022904"/>
</svg>
