 <svg version="1.0" xmlns="http://www.w3.org/2000/svg" width="700.000000pt" height="700.000000pt" viewBox="0 0 700.000000 700.000000" preserveAspectRatio="xMidYMid meet">
<metadata>
Created by potrace 1.12, written by Peter Selinger 2001-2015
</metadata>
<g transform="translate(0.000000,700.000000) scale(0.100000,-0.100000)" fill="#FFFFFF" stroke="none">
<path d="M611 5149 c-31 -12 -137 -115 -156 -151 -17 -31 -20 -143 -5 -184 11
-29 84 -117 139 -168 51 -47 96 -92 214 -212 59 -60 120 -120 134 -134 14 -14
74 -74 133 -135 60 -60 123 -124 142 -141 18 -17 47 -46 63 -63 40 -42 126
-128 166 -166 18 -16 48 -47 68 -68 20 -22 81 -82 135 -135 54 -54 120 -119
145 -145 25 -26 88 -89 140 -140 52 -51 113 -111 135 -135 59 -62 229 -232
268 -267 18 -17 47 -45 63 -63 39 -43 126 -129 167 -167 18 -16 48 -47 68 -69
45 -49 205 -209 262 -261 24 -22 84 -83 133 -136 50 -52 105 -106 122 -119 18
-13 45 -41 60 -62 14 -21 56 -61 92 -88 36 -27 78 -60 93 -72 19 -15 46 -23
87 -26 70 -5 119 9 158 46 15 15 50 43 76 64 26 20 64 57 84 82 20 25 39 46
44 46 4 0 153 146 331 326 385 388 316 318 633 635 143 142 268 267 277 276
36 36 266 266 285 286 19 18 217 217 276 276 14 14 143 143 286 286 144 143
266 266 273 273 7 7 60 59 118 115 58 56 118 120 135 142 16 22 42 52 57 66
15 15 32 39 38 53 15 40 12 153 -4 184 -17 32 -121 135 -153 151 -27 14 -143
14 -179 1 -35 -14 -112 -81 -244 -215 -60 -60 -120 -121 -134 -135 -14 -14
-48 -47 -75 -75 -27 -27 -62 -61 -78 -75 -15 -14 -41 -40 -58 -59 -16 -18 -50
-53 -75 -77 -25 -24 -54 -52 -64 -62 -108 -108 -134 -135 -156 -159 -14 -15
-42 -44 -63 -63 -47 -43 -207 -202 -263 -262 -22 -23 -54 -54 -70 -68 -16 -14
-43 -41 -60 -60 -17 -19 -49 -51 -70 -71 -21 -21 -57 -57 -79 -80 -22 -24 -54
-56 -70 -70 -17 -14 -46 -44 -66 -65 -20 -21 -54 -55 -75 -75 -22 -20 -53 -52
-69 -70 -17 -19 -44 -46 -60 -60 -17 -15 -48 -46 -70 -70 -23 -24 -59 -60 -80
-79 -22 -20 -54 -51 -71 -70 -17 -19 -50 -55 -75 -78 -24 -24 -90 -89 -147
-145 -57 -56 -143 -141 -191 -188 -48 -48 -102 -105 -120 -128 -39 -49 -88
-67 -156 -57 -46 7 -58 19 -1078 1039 -568 568 -1049 1045 -1069 1061 -21 15
-47 43 -59 62 -11 19 -40 48 -64 65 -24 17 -57 51 -75 75 -18 25 -50 57 -71
71 -22 14 -52 43 -68 64 -15 22 -50 56 -77 76 -27 21 -58 48 -68 61 -11 14
-34 31 -52 38 -38 16 -147 18 -183 3z"></path>
</g>
</svg>