<svg width="16" height="18" viewBox="0 0 16 18" fill="none" xmlns="http://www.w3.org/2000/svg">
<path d="M10.5837 3.14795H2.21587C1.43069 3.14795 0.792969 3.78567 0.792969 4.57085V16.577C0.792969 17.3622 1.43069 17.9999 2.21587 17.9999H10.5837C11.3688 17.9999 12.0066 17.3622 12.0066 16.577V4.57085C12.0029 3.78567 11.3652 3.14795 10.5837 3.14795ZM11.0076 16.5733C11.0076 16.8092 10.8159 17.0009 10.58 17.0009H2.21218C1.97626 17.0009 1.78457 16.8092 1.78457 16.5733V4.57085C1.78457 4.33492 1.97626 4.14324 2.21218 4.14324H10.58C10.8159 4.14324 11.0076 4.33492 11.0076 4.57085V16.5733Z" fill="#333333"/>
<path d="M13.7829 0H5.41508C4.62991 0 3.99219 0.637723 3.99219 1.4229C3.99219 1.69937 4.21336 1.92054 4.48983 1.92054C4.7663 1.92054 4.98748 1.69937 4.98748 1.4229C4.98748 1.18698 5.17916 0.99529 5.41508 0.99529H13.7829C14.0188 0.99529 14.2105 1.18698 14.2105 1.4229V13.429C14.2105 13.665 14.0188 13.8566 13.7829 13.8566C13.5064 13.8566 13.2852 14.0778 13.2852 14.3543C13.2852 14.6308 13.5064 14.8519 13.7829 14.8519C14.5681 14.8519 15.2058 14.2142 15.2058 13.429V1.4229C15.2058 0.637723 14.5681 0 13.7829 0Z" fill="#333333"/>
</svg>
