<?xml version="1.0" standalone="no"?>
<!DOCTYPE svg PUBLIC "-//W3C//DTD SVG 20010904//EN"
 "http://www.w3.org/TR/2001/REC-SVG-20010904/DTD/svg10.dtd">
<svg version="1.0" xmlns="http://www.w3.org/2000/svg"
 width="512.000000pt" height="512.000000pt" viewBox="0 0 512.000000 512.000000"
 preserveAspectRatio="xMidYMid meet">

<g transform="translate(0.000000,512.000000) scale(0.100000,-0.100000)"
fill="#969696" stroke="#969696" stroke-width="100">
<path d="M438 4910 c-250 -126 -421 -217 -428 -229 -7 -13 -10 -241 -10 -686
l0 -666 25 -24 24 -25 564 0 563 0 64 -97 c173 -266 449 -451 774 -520 102
-22 341 -24 441 -4 494 98 868 472 966 966 8 40 14 132 14 215 0 157 -12 236
-56 372 -59 182 -155 337 -298 478 -170 169 -357 270 -603 327 -117 27 -375
23 -498 -7 -109 -26 -195 -57 -282 -101 l-60 -31 -123 121 -122 121 -269 -1
-269 0 -417 -209z m973 -36 l87 -86 -98 -97 c-184 -181 -306 -414 -340 -646
-20 -134 -15 -125 -60 -125 l-40 0 0 -80 0 -79 349 -3 c335 -3 351 -4 377 -24
53 -39 69 -71 69 -134 0 -63 -16 -95 -69 -134 -27 -21 -38 -21 -777 -24 l-749
-2 0 575 0 575 368 184 367 185 215 0 215 1 86 -86z m975 -5 c144 -20 324 -90
443 -172 65 -45 195 -171 248 -241 156 -208 230 -502 192 -759 -32 -215 -126
-409 -274 -566 -89 -93 -163 -150 -270 -207 l-85 -46 0 223 0 223 120 121 120
122 0 105 0 106 30 12 c68 28 130 129 130 210 0 124 -116 240 -240 240 -124 0
-240 -116 -240 -240 0 -81 62 -182 130 -210 29 -12 30 -14 30 -83 l0 -71 -120
-121 -120 -122 0 -281 c0 -319 11 -285 -97 -300 l-63 -9 0 607 0 608 30 12
c68 28 130 129 130 210 0 125 -114 240 -238 240 -126 0 -242 -115 -242 -240 0
-81 62 -182 130 -210 l30 -12 0 -609 0 -609 -22 4 c-13 3 -41 8 -63 11 -82 13
-75 -16 -75 296 l0 280 -50 53 c-49 52 -49 53 -39 92 21 75 -4 183 -63 266
-10 14 -8 21 9 40 55 59 75 150 51 232 -16 55 -99 138 -154 154 -94 28 -169 8
-240 -63 -59 -59 -80 -117 -71 -195 l6 -50 -121 0 -121 0 7 63 c13 133 79 307
163 434 21 32 70 91 108 132 237 250 565 367 901 320z m-91 -574 c50 -49 15
-135 -55 -135 -41 0 -80 39 -80 80 0 41 39 80 80 80 19 0 40 -9 55 -25z m-560
-240 c50 -49 15 -135 -55 -135 -41 0 -80 39 -80 80 0 41 39 80 80 80 19 0 40
-9 55 -25z m1120 0 c16 -15 25 -36 25 -55 0 -19 -9 -40 -25 -55 -15 -16 -36
-25 -55 -25 -19 0 -40 9 -55 25 -16 15 -25 36 -25 55 0 19 9 40 25 55 15 16
36 25 55 25 19 0 40 -9 55 -25z m-1015 -952 l0 -223 -62 31 c-93 47 -175 105
-252 178 -62 60 -156 171 -156 185 0 3 60 6 133 6 145 0 209 13 268 53 31 22
36 23 52 9 15 -14 17 -38 17 -239z"/>
<path d="M1865 2455 l-25 -24 0 -256 0 -255 -95 0 c-88 0 -98 -2 -120 -25 -53
-52 -51 -55 270 -422 163 -187 306 -342 320 -347 16 -6 34 -6 50 0 14 5 157
160 320 347 321 367 323 370 270 422 -22 23 -32 25 -120 25 l-95 0 0 255 0
256 -25 24 -24 25 -351 0 -351 0 -24 -25z m615 -389 c0 -296 0 -296 88 -306
l51 -5 -183 -210 c-101 -115 -189 -210 -196 -210 -7 0 -95 95 -196 210 l-183
210 51 5 c88 10 88 10 88 306 l0 254 240 0 240 0 0 -254z"/>
<path d="M3065 1346 c-107 -34 -186 -102 -232 -201 -24 -51 -28 -73 -28 -145
0 -71 4 -94 27 -142 l27 -58 -140 0 -140 0 -497 229 c-274 126 -519 235 -545
242 -64 16 -163 6 -224 -23 -62 -29 -132 -99 -163 -163 -19 -40 -24 -66 -24
-135 -1 -73 3 -93 26 -140 15 -30 46 -74 70 -97 30 -29 227 -145 640 -377
l597 -336 1306 0 1306 0 24 25 25 24 0 471 0 471 -25 24 -24 25 -238 0 -237 0
-161 160 -161 160 -585 -1 c-442 0 -594 -3 -624 -13z m1300 -306 l161 -160
217 0 217 0 0 -360 0 -360 -1229 0 -1229 0 -583 328 c-617 347 -620 349 -635
428 -14 76 31 161 103 190 74 32 84 28 635 -226 l520 -240 689 0 689 0 0 80 0
79 -412 3 -413 3 -38 24 c-76 47 -111 140 -88 229 14 52 76 117 123 131 19 5
265 10 573 10 l539 1 161 -160z"/>
</g>
</svg>
