<svg width="234" height="213" viewBox="0 0 234 213" fill="none" xmlns="http://www.w3.org/2000/svg">
<g filter="url(#filter0_f_5_426)">
<circle cx="42.2475" cy="186.324" r="1" transform="rotate(-171.386 42.2475 186.324)" fill="#07B704"/>
</g>
<g filter="url(#filter1_f_5_426)">
<circle cx="38.8918" cy="181.77" r="1" transform="rotate(-171.386 38.8918 181.77)" fill="#07B704"/>
</g>
<g filter="url(#filter2_f_5_426)">
<ellipse cx="34.772" cy="175.583" rx="2" ry="2.5" transform="rotate(-171.386 34.772 175.583)" fill="#07B704"/>
</g>
<g filter="url(#filter3_f_5_426)">
<ellipse cx="29.1989" cy="165.636" rx="3" ry="3.5" transform="rotate(-171.386 29.1989 165.636)" fill="#07B704"/>
</g>
<g filter="url(#filter4_f_5_426)">
<circle cx="24.3" cy="151.24" r="4" transform="rotate(-171.386 24.3 151.24)" fill="#07B704"/>
</g>
<g filter="url(#filter5_f_5_426)">
<circle cx="21.6032" cy="135.66" r="5" transform="rotate(-171.386 21.6032 135.66)" fill="#07B704"/>
</g>
<g filter="url(#filter6_f_5_426)">
<ellipse cx="20.9586" cy="119.886" rx="5" ry="5.5" transform="rotate(-171.386 20.9586 119.886)" fill="#07B704"/>
</g>
<g filter="url(#filter7_f_5_426)">
<ellipse cx="23.3848" cy="100.531" rx="5.5" ry="6" transform="rotate(-171.386 23.3848 100.531)" fill="#07B704"/>
</g>
<g filter="url(#filter8_f_5_426)">
<ellipse cx="30.9045" cy="80.936" rx="6" ry="6.5" transform="rotate(-171.386 30.9045 80.936)" fill="#07B704"/>
</g>
<g filter="url(#filter9_f_5_426)">
<ellipse cx="39.8027" cy="65.5957" rx="6.5" ry="7" transform="rotate(-171.386 39.8027 65.5957)" fill="#07B704"/>
</g>
<g filter="url(#filter10_f_5_426)">
<ellipse cx="53.6445" cy="51.0043" rx="7" ry="7.5" transform="rotate(-171.386 53.6445 51.0043)" fill="#07B704"/>
</g>
<g filter="url(#filter11_f_5_426)">
<circle cx="70.2275" cy="38.3453" r="7.5" transform="rotate(-171.386 70.2275 38.3453)" fill="#07B704"/>
</g>
<g filter="url(#filter12_f_5_426)">
<circle cx="89.2526" cy="29.5962" r="8" transform="rotate(-171.386 89.2526 29.5962)" fill="#07B704"/>
</g>
<g filter="url(#filter13_f_5_426)">
<ellipse cx="112.277" cy="24.4873" rx="8" ry="8.5" transform="rotate(-171.386 112.277 24.4873)" fill="#07B704"/>
</g>
<g filter="url(#filter14_f_5_426)">
<ellipse cx="135.737" cy="26.5241" rx="8.5" ry="9" transform="rotate(-171.386 135.737 26.5241)" fill="#07B704"/>
</g>
<g filter="url(#filter15_f_5_426)">
<ellipse cx="159.137" cy="35.6317" rx="9" ry="9.5" transform="rotate(-171.386 159.137 35.6317)" fill="#07B704"/>
</g>
<g filter="url(#filter16_f_5_426)">
<ellipse cx="179.511" cy="51.3607" rx="9.5" ry="10" transform="rotate(-171.386 179.511 51.3607)" fill="#07B704"/>
</g>
<g filter="url(#filter17_f_5_426)">
<ellipse cx="195.72" cy="74.5502" rx="10" ry="10.5" transform="rotate(-171.386 195.72 74.5502)" fill="#07B704"/>
</g>
<g filter="url(#filter18_f_5_426)">
<ellipse cx="206.627" cy="106.039" rx="10.5" ry="11" transform="rotate(-171.386 206.627 106.039)" fill="#07B704"/>
</g>
<g filter="url(#filter19_f_5_426)">
<ellipse cx="207.002" cy="136.944" rx="10.5" ry="11.5" transform="rotate(-171.386 207.002 136.944)" fill="#07B704"/>
</g>
<ellipse cx="207.002" cy="136.944" rx="10.5" ry="11.5" transform="rotate(-171.386 207.002 136.944)" fill="#07B704"/>
<ellipse cx="206.627" cy="106.039" rx="10.5" ry="11" transform="rotate(-171.386 206.627 106.039)" fill="#07B704"/>
<ellipse cx="195.72" cy="74.5502" rx="10" ry="10.5" transform="rotate(-171.386 195.72 74.5502)" fill="#07B704"/>
<ellipse cx="179.511" cy="51.3607" rx="9.5" ry="10" transform="rotate(-171.386 179.511 51.3607)" fill="#07B704"/>
<ellipse cx="159.137" cy="35.6317" rx="9" ry="9.5" transform="rotate(-171.386 159.137 35.6317)" fill="#07B704"/>
<ellipse cx="135.737" cy="26.5241" rx="8.5" ry="9" transform="rotate(-171.386 135.737 26.5241)" fill="#07B704"/>
<ellipse cx="112.277" cy="24.4873" rx="8" ry="8.5" transform="rotate(-171.386 112.277 24.4873)" fill="#07B704"/>
<circle cx="89.2526" cy="29.5962" r="8" transform="rotate(-171.386 89.2526 29.5962)" fill="#07B704"/>
<circle cx="70.2275" cy="38.3453" r="7.5" transform="rotate(-171.386 70.2275 38.3453)" fill="#07B704"/>
<ellipse cx="53.6445" cy="51.0043" rx="7" ry="7.5" transform="rotate(-171.386 53.6445 51.0043)" fill="#07B704"/>
<ellipse cx="39.8027" cy="65.5957" rx="6.5" ry="7" transform="rotate(-171.386 39.8027 65.5957)" fill="#07B704"/>
<ellipse cx="30.9045" cy="80.936" rx="6" ry="6.5" transform="rotate(-171.386 30.9045 80.936)" fill="#07B704"/>
<ellipse cx="23.3848" cy="100.531" rx="5.5" ry="6" transform="rotate(-171.386 23.3848 100.531)" fill="#07B704"/>
<ellipse cx="20.9586" cy="119.886" rx="5" ry="5.5" transform="rotate(-171.386 20.9586 119.886)" fill="#07B704"/>
<circle cx="21.6032" cy="135.66" r="5" transform="rotate(-171.386 21.6032 135.66)" fill="#07B704"/>
<circle cx="24.3" cy="151.24" r="4" transform="rotate(-171.386 24.3 151.24)" fill="#07B704"/>
<ellipse cx="29.1989" cy="165.636" rx="3" ry="3.5" transform="rotate(-171.386 29.1989 165.636)" fill="#07B704"/>
<ellipse cx="34.772" cy="175.583" rx="2" ry="2.5" transform="rotate(-171.386 34.772 175.583)" fill="#07B704"/>
<circle cx="38.8918" cy="181.77" r="1" transform="rotate(-171.386 38.8918 181.77)" fill="#07B704"/>
<circle cx="42.2475" cy="186.324" r="1" transform="rotate(-171.386 42.2475 186.324)" fill="#07B704"/>
<defs>
<filter id="filter0_f_5_426" x="26.2473" y="170.324" width="32.0002" height="32.0003" filterUnits="userSpaceOnUse" color-interpolation-filters="sRGB">
<feFlood flood-opacity="0" result="BackgroundImageFix"/>
<feBlend mode="normal" in="SourceGraphic" in2="BackgroundImageFix" result="shape"/>
<feGaussianBlur stdDeviation="7.5" result="effect1_foregroundBlur_5_426"/>
</filter>
<filter id="filter1_f_5_426" x="22.8916" y="165.77" width="32.0002" height="32.0003" filterUnits="userSpaceOnUse" color-interpolation-filters="sRGB">
<feFlood flood-opacity="0" result="BackgroundImageFix"/>
<feBlend mode="normal" in="SourceGraphic" in2="BackgroundImageFix" result="shape"/>
<feGaussianBlur stdDeviation="7.5" result="effect1_foregroundBlur_5_426"/>
</filter>
<filter id="filter2_f_5_426" x="17.759" y="158.093" width="34.0259" height="34.9803" filterUnits="userSpaceOnUse" color-interpolation-filters="sRGB">
<feFlood flood-opacity="0" result="BackgroundImageFix"/>
<feBlend mode="normal" in="SourceGraphic" in2="BackgroundImageFix" result="shape"/>
<feGaussianBlur stdDeviation="7.5" result="effect1_foregroundBlur_5_426"/>
</filter>
<filter id="filter3_f_5_426" x="11.1863" y="147.146" width="36.0254" height="36.9799" filterUnits="userSpaceOnUse" color-interpolation-filters="sRGB">
<feFlood flood-opacity="0" result="BackgroundImageFix"/>
<feBlend mode="normal" in="SourceGraphic" in2="BackgroundImageFix" result="shape"/>
<feGaussianBlur stdDeviation="7.5" result="effect1_foregroundBlur_5_426"/>
</filter>
<filter id="filter4_f_5_426" x="5.29956" y="132.239" width="38.001" height="38.0011" filterUnits="userSpaceOnUse" color-interpolation-filters="sRGB">
<feFlood flood-opacity="0" result="BackgroundImageFix"/>
<feBlend mode="normal" in="SourceGraphic" in2="BackgroundImageFix" result="shape"/>
<feGaussianBlur stdDeviation="7.5" result="effect1_foregroundBlur_5_426"/>
</filter>
<filter id="filter5_f_5_426" x="1.60254" y="115.659" width="40.0012" height="40.0014" filterUnits="userSpaceOnUse" color-interpolation-filters="sRGB">
<feFlood flood-opacity="0" result="BackgroundImageFix"/>
<feBlend mode="normal" in="SourceGraphic" in2="BackgroundImageFix" result="shape"/>
<feGaussianBlur stdDeviation="7.5" result="effect1_foregroundBlur_5_426"/>
</filter>
<filter id="filter6_f_5_426" x="0.946045" y="99.3957" width="40.0251" height="40.9799" filterUnits="userSpaceOnUse" color-interpolation-filters="sRGB">
<feFlood flood-opacity="0" result="BackgroundImageFix"/>
<feBlend mode="normal" in="SourceGraphic" in2="BackgroundImageFix" result="shape"/>
<feGaussianBlur stdDeviation="7.5" result="effect1_foregroundBlur_5_426"/>
</filter>
<filter id="filter7_f_5_426" x="2.87231" y="79.5407" width="41.0251" height="41.9799" filterUnits="userSpaceOnUse" color-interpolation-filters="sRGB">
<feFlood flood-opacity="0" result="BackgroundImageFix"/>
<feBlend mode="normal" in="SourceGraphic" in2="BackgroundImageFix" result="shape"/>
<feGaussianBlur stdDeviation="7.5" result="effect1_foregroundBlur_5_426"/>
</filter>
<filter id="filter8_f_5_426" x="9.89185" y="59.446" width="42.0254" height="42.98" filterUnits="userSpaceOnUse" color-interpolation-filters="sRGB">
<feFlood flood-opacity="0" result="BackgroundImageFix"/>
<feBlend mode="normal" in="SourceGraphic" in2="BackgroundImageFix" result="shape"/>
<feGaussianBlur stdDeviation="7.5" result="effect1_foregroundBlur_5_426"/>
</filter>
<filter id="filter9_f_5_426" x="18.29" y="43.6056" width="43.0254" height="43.9801" filterUnits="userSpaceOnUse" color-interpolation-filters="sRGB">
<feFlood flood-opacity="0" result="BackgroundImageFix"/>
<feBlend mode="normal" in="SourceGraphic" in2="BackgroundImageFix" result="shape"/>
<feGaussianBlur stdDeviation="7.5" result="effect1_foregroundBlur_5_426"/>
</filter>
<filter id="filter10_f_5_426" x="31.6318" y="28.5142" width="44.0254" height="44.9802" filterUnits="userSpaceOnUse" color-interpolation-filters="sRGB">
<feFlood flood-opacity="0" result="BackgroundImageFix"/>
<feBlend mode="normal" in="SourceGraphic" in2="BackgroundImageFix" result="shape"/>
<feGaussianBlur stdDeviation="7.5" result="effect1_foregroundBlur_5_426"/>
</filter>
<filter id="filter11_f_5_426" x="47.7266" y="15.8443" width="45.002" height="45.0021" filterUnits="userSpaceOnUse" color-interpolation-filters="sRGB">
<feFlood flood-opacity="0" result="BackgroundImageFix"/>
<feBlend mode="normal" in="SourceGraphic" in2="BackgroundImageFix" result="shape"/>
<feGaussianBlur stdDeviation="7.5" result="effect1_foregroundBlur_5_426"/>
</filter>
<filter id="filter12_f_5_426" x="66.2515" y="6.59512" width="46.0022" height="46.0022" filterUnits="userSpaceOnUse" color-interpolation-filters="sRGB">
<feFlood flood-opacity="0" result="BackgroundImageFix"/>
<feBlend mode="normal" in="SourceGraphic" in2="BackgroundImageFix" result="shape"/>
<feGaussianBlur stdDeviation="7.5" result="effect1_foregroundBlur_5_426"/>
</filter>
<filter id="filter13_f_5_426" x="89.2646" y="0.997116" width="46.0256" height="46.9804" filterUnits="userSpaceOnUse" color-interpolation-filters="sRGB">
<feFlood flood-opacity="0" result="BackgroundImageFix"/>
<feBlend mode="normal" in="SourceGraphic" in2="BackgroundImageFix" result="shape"/>
<feGaussianBlur stdDeviation="7.5" result="effect1_foregroundBlur_5_426"/>
</filter>
<filter id="filter14_f_5_426" x="112.224" y="2.53384" width="47.0256" height="47.9805" filterUnits="userSpaceOnUse" color-interpolation-filters="sRGB">
<feFlood flood-opacity="0" result="BackgroundImageFix"/>
<feBlend mode="normal" in="SourceGraphic" in2="BackgroundImageFix" result="shape"/>
<feGaussianBlur stdDeviation="7.5" result="effect1_foregroundBlur_5_426"/>
</filter>
<filter id="filter15_f_5_426" x="135.124" y="11.1414" width="48.0259" height="48.9806" filterUnits="userSpaceOnUse" color-interpolation-filters="sRGB">
<feFlood flood-opacity="0" result="BackgroundImageFix"/>
<feBlend mode="normal" in="SourceGraphic" in2="BackgroundImageFix" result="shape"/>
<feGaussianBlur stdDeviation="7.5" result="effect1_foregroundBlur_5_426"/>
</filter>
<filter id="filter16_f_5_426" x="154.998" y="26.3704" width="49.0259" height="49.9807" filterUnits="userSpaceOnUse" color-interpolation-filters="sRGB">
<feFlood flood-opacity="0" result="BackgroundImageFix"/>
<feBlend mode="normal" in="SourceGraphic" in2="BackgroundImageFix" result="shape"/>
<feGaussianBlur stdDeviation="7.5" result="effect1_foregroundBlur_5_426"/>
</filter>
<filter id="filter17_f_5_426" x="170.708" y="49.0598" width="50.0259" height="50.9808" filterUnits="userSpaceOnUse" color-interpolation-filters="sRGB">
<feFlood flood-opacity="0" result="BackgroundImageFix"/>
<feBlend mode="normal" in="SourceGraphic" in2="BackgroundImageFix" result="shape"/>
<feGaussianBlur stdDeviation="7.5" result="effect1_foregroundBlur_5_426"/>
</filter>
<filter id="filter18_f_5_426" x="181.114" y="80.0486" width="51.0261" height="51.9809" filterUnits="userSpaceOnUse" color-interpolation-filters="sRGB">
<feFlood flood-opacity="0" result="BackgroundImageFix"/>
<feBlend mode="normal" in="SourceGraphic" in2="BackgroundImageFix" result="shape"/>
<feGaussianBlur stdDeviation="7.5" result="effect1_foregroundBlur_5_426"/>
</filter>
<filter id="filter19_f_5_426" x="181.477" y="110.464" width="51.05" height="52.9598" filterUnits="userSpaceOnUse" color-interpolation-filters="sRGB">
<feFlood flood-opacity="0" result="BackgroundImageFix"/>
<feBlend mode="normal" in="SourceGraphic" in2="BackgroundImageFix" result="shape"/>
<feGaussianBlur stdDeviation="7.5" result="effect1_foregroundBlur_5_426"/>
</filter>
</defs>
</svg>
