<svg width="20" height="20" viewBox="0 0 20 20" fill="none" xmlns="http://www.w3.org/2000/svg">
<path d="M9.66185 18.854H4.44537C3.02771 18.854 1.87746 17.6995 1.87746 16.2861V3.71392C1.87746 2.29626 3.03196 1.14601 4.44537 1.14601H9.74674C10.0651 1.14601 10.3197 0.891341 10.3197 0.573005C10.3197 0.254669 10.0651 0 9.74674 0H4.44537C2.39529 0 0.731445 1.66808 0.731445 3.71392V16.2861C0.731445 18.3362 2.39953 20 4.44537 20H9.66185C9.98019 20 10.2349 19.7453 10.2349 19.427C10.2349 19.1087 9.97594 18.854 9.66185 18.854Z" fill="#022904"/>
<path d="M19.1018 9.59687L15.46 5.9551C15.2351 5.73014 14.8743 5.73014 14.6493 5.9551C14.4244 6.18005 14.4244 6.54083 14.6493 6.76579L17.3149 9.43133H5.68922C5.37088 9.43133 5.11621 9.686 5.11621 10.0043C5.11621 10.3227 5.37088 10.5773 5.68922 10.5773H17.3149L14.6493 13.2429C14.4244 13.4678 14.4244 13.8286 14.6493 14.0536C14.7597 14.1639 14.9082 14.2234 15.0525 14.2234C15.1969 14.2234 15.3454 14.1682 15.4558 14.0536L19.0975 10.4118C19.3267 10.1826 19.3267 9.81758 19.1018 9.59687Z" fill="#022904"/>
</svg>
