<svg width="20" height="16" viewBox="0 0 20 16" fill="none" xmlns="http://www.w3.org/2000/svg">
<path d="M18.3333 0.5H1.66668C0.747461 0.5 0 1.24746 0 2.16668V13.8334C0 14.7525 0.747461 15.5 1.66668 15.5H18.3334C19.2525 15.5 20 14.7525 20 13.8333V2.16668C20 1.24746 19.2525 0.5 18.3333 0.5ZM1.66668 1.33332H18.3334C18.3948 1.33332 18.4489 1.3557 18.5065 1.36836C17.0636 2.68895 12.279 7.06598 10.6047 8.57453C10.4737 8.69254 10.2625 8.83332 10 8.83332C9.73758 8.83332 9.52641 8.69254 9.39496 8.57414C7.72078 7.06582 2.93598 2.68855 1.49328 1.36844C1.55102 1.35578 1.60523 1.33332 1.66668 1.33332ZM0.83332 13.8333V2.16668C0.83332 2.08504 0.85793 2.01098 0.879961 1.93637C1.98434 2.94715 5.32277 6.00121 7.48746 7.96969C5.3298 9.82309 1.99051 12.989 0.877344 14.0505C0.857695 13.9796 0.83332 13.9104 0.83332 13.8333ZM18.3333 14.6667H1.66668C1.60012 14.6667 1.54094 14.6435 1.47879 14.6286C2.62906 13.5321 5.98961 10.3479 8.10934 8.53453C8.38566 8.7852 8.63809 9.01375 8.83707 9.19305C9.18051 9.50312 9.5825 9.66668 10 9.66668C10.4175 9.66668 10.8195 9.50309 11.1625 9.19344C11.3616 9.01406 11.6142 8.78531 11.8907 8.53453C14.0105 10.3477 17.3706 13.5316 18.5212 14.6286C18.4591 14.6435 18.4 14.6667 18.3333 14.6667ZM19.1667 13.8333C19.1667 13.9103 19.1423 13.9796 19.1227 14.0505C18.0091 12.9885 14.6702 9.82289 12.5126 7.96973C14.6773 6.00125 18.0153 2.94746 19.12 1.93629C19.1421 2.0109 19.1667 2.085 19.1667 2.16664V13.8333Z" fill="#022904"/>
</svg>
