<svg width="30" height="30" viewBox="0 0 30 30" fill="none" xmlns="http://www.w3.org/2000/svg">
<path d="M15 0C6.70951 0 0 6.70875 0 15C0 23.2904 6.70875 30 15 30C23.2905 30 30 23.2913 30 15C30 6.70951 23.2913 0 15 0ZM15 27.907C7.88309 27.907 2.09303 22.117 2.09303 15C2.09303 7.88303 7.88309 2.09303 15 2.09303C22.117 2.09303 27.907 7.88303 27.907 15C27.907 22.117 22.117 27.907 15 27.907Z" fill="#969696"/>
<path d="M14.5553 18.98C13.726 18.98 13.0547 19.671 13.0547 20.5003C13.0547 21.3098 13.7062 22.0206 14.5553 22.0206C15.4043 22.0206 16.0755 21.3098 16.0755 20.5003C16.0755 19.671 15.3845 18.98 14.5553 18.98Z" fill="#969696"/>
<path d="M14.8116 7.46875C12.146 7.46875 10.9219 9.04838 10.9219 10.1146C10.9219 10.8846 11.5734 11.24 12.1065 11.24C13.1727 11.24 12.7384 9.71963 14.7523 9.71963C15.7395 9.71963 16.5293 10.154 16.5293 11.0623C16.5293 12.1285 15.4236 12.7405 14.7721 13.2934C14.1994 13.7869 13.4492 14.5965 13.4492 16.2946C13.4492 17.3212 13.7256 17.6174 14.5351 17.6174C15.5026 17.6174 15.7 17.1831 15.7 16.8078C15.7 15.7812 15.7198 15.1888 16.8057 14.3398C17.3388 13.9252 19.0171 12.5825 19.0171 10.7266C19.0171 8.87061 17.3388 7.46875 14.8116 7.46875Z" fill="#969696"/>
</svg>
