<svg width="30" height="30" viewBox="0 0 30 30" fill="none" xmlns="http://www.w3.org/2000/svg">
<path d="M21.2109 22.9688V25.3125C21.2109 27.8973 19.1082 30 16.5234 30H4.74609C2.16133 30 0.0585938 27.8973 0.0585938 25.3125V4.6875C0.0585938 2.10274 2.16133 0 4.74609 0H16.5234C19.1082 0 21.2109 2.10274 21.2109 4.6875V7.03125C21.2109 7.67853 20.6863 8.20312 20.0391 8.20312C19.3918 8.20312 18.8672 7.67853 18.8672 7.03125V4.6875C18.8672 3.39523 17.8157 2.34375 16.5234 2.34375H4.74609C3.45383 2.34375 2.40234 3.39523 2.40234 4.6875V25.3125C2.40234 26.6048 3.45383 27.6562 4.74609 27.6562H16.5234C17.8157 27.6562 18.8672 26.6048 18.8672 25.3125V22.9688C18.8672 22.3215 19.3918 21.7969 20.0391 21.7969C20.6863 21.7969 21.2109 22.3215 21.2109 22.9688ZM29.2005 12.987L26.5764 10.3629C26.1186 9.90509 25.3766 9.90509 24.9191 10.3629C24.4613 10.8204 24.4613 11.5624 24.9191 12.02L26.7856 13.8867H12.7148C12.0676 13.8867 11.543 14.4113 11.543 15.0586C11.543 15.7059 12.0676 16.2305 12.7148 16.2305H26.7856L24.9191 18.0972C24.4613 18.5548 24.4613 19.2968 24.9191 19.7543C25.1479 19.9832 25.4478 20.0977 25.7476 20.0977C26.0477 20.0977 26.3475 19.9832 26.5764 19.7543L29.2005 17.1302C30.3429 15.9879 30.3429 14.1293 29.2005 12.987Z" fill="#969696"/>
</svg>
