<svg width="34" height="32" viewBox="0 0 34 32" fill="none" xmlns="http://www.w3.org/2000/svg">
<path d="M33.6258 16.0003C33.6262 18.9933 32.7525 21.9212 31.112 24.4245C29.4716 26.9278 27.1358 28.8976 24.3915 30.0919C21.6471 31.2863 18.6138 31.6532 15.6638 31.1476C12.7139 30.642 9.97581 29.286 7.78582 27.2459C7.55433 27.0318 7.4174 26.7344 7.40516 26.4193C7.39291 26.1042 7.50634 25.7971 7.7205 25.5656C7.93467 25.3341 8.23201 25.1972 8.54713 25.185C8.86225 25.1727 9.16933 25.2861 9.40082 25.5003C11.576 27.5267 14.3805 28.7457 17.346 28.954C20.3116 29.1622 23.2588 28.3471 25.6959 26.6446C28.133 24.9421 29.9124 22.4552 30.7372 19.5991C31.5621 16.743 31.3824 13.6903 30.2281 10.9507C29.0739 8.21108 27.015 5.95019 24.395 4.54538C21.775 3.14057 18.7525 2.67684 15.8318 3.23159C12.9112 3.78633 10.2692 5.32599 8.34671 7.59358C6.42425 9.86118 5.33767 12.7195 5.26832 15.6916H7.04957C7.25882 15.6907 7.46457 15.7452 7.64599 15.8495C7.82742 15.9537 7.97807 16.1041 8.08269 16.2853C8.18692 16.4658 8.24179 16.6706 8.24179 16.8791C8.24179 17.0875 8.18692 17.2923 8.08269 17.4728L5.33957 22.2228C5.23599 22.4056 5.0858 22.5576 4.9043 22.6633C4.7228 22.7691 4.5165 22.8248 4.30644 22.8248C4.09638 22.8248 3.89008 22.7691 3.70858 22.6633C3.52708 22.5576 3.37689 22.4056 3.27331 22.2228L0.530189 17.4728C0.425964 17.2923 0.371094 17.0875 0.371094 16.8791C0.371094 16.6706 0.425964 16.4658 0.530189 16.2853C0.634813 16.1041 0.785464 15.9537 0.966887 15.8495C1.14831 15.7452 1.35406 15.6907 1.56331 15.6916H2.90519C3.04927 11.6877 4.7514 7.89851 7.64879 5.13148C10.5462 2.36445 14.4097 0.838443 18.4159 0.878707C22.4221 0.91897 26.2542 2.52232 29.0954 5.34702C31.9366 8.17173 33.5622 11.9944 33.6258 16.0003ZM23.8646 22.6741C24.0587 22.428 24.1477 22.1151 24.1121 21.8037C24.0765 21.4922 23.9193 21.2075 23.6746 21.0116L18.1883 16.6178V6.50032C18.1883 6.18537 18.0632 5.88333 17.8405 5.66063C17.6178 5.43793 17.3158 5.31282 17.0008 5.31282C16.6859 5.31282 16.3838 5.43793 16.1611 5.66063C15.9384 5.88333 15.8133 6.18537 15.8133 6.50032V17.1878C15.8141 17.3662 15.8551 17.5421 15.9333 17.7024C16.0114 17.8628 16.1246 18.0035 16.2646 18.1141L22.2021 22.8641C22.411 23.0317 22.6705 23.1238 22.9383 23.1253C23.1167 23.1245 23.2926 23.0835 23.4529 23.0054C23.6133 22.9273 23.754 22.814 23.8646 22.6741Z" fill="#969696"/>
</svg>
